name Walk4.mot
datacolumns 19
datarows 27
range 1.77000000 1.79600000
endheader

                time	   L_ground_force_vx	   L_ground_force_vy	   L_ground_force_vz	   L_ground_force_px	   L_ground_force_py	   L_ground_force_pz	   R_ground_force_vx	   R_ground_force_vy	   R_ground_force_vz	   R_ground_force_px	   R_ground_force_py	   R_ground_force_pz	   L_ground_torque_x	   L_ground_torque_y	   L_ground_torque_z	   R_ground_torque_x	   R_ground_torque_y	   R_ground_torque_z	
          1.77000000	        -13.90384516	         93.39866324	        -10.45496590	          0.00086436	          0.00000000	          0.00127362	         -0.00000000	          0.00000000	          0.00000000	          0.00000000	          0.00000000	          0.00000000	          0.00000000	          0.32965525	          0.00000000	          0.00000000	          0.00000000	          0.00000000	
          1.77100000	        -15.87799260	        102.70556242	        -11.59014579	         -0.01530261	          0.00000000	         -0.00015532	         -0.00000000	          0.00000000	          0.00000000	          0.00000000	          0.00000000	          0.00000000	          0.00000000	          0.35709402	          0.00000000	          0.00000000	          0.00000000	          0.00000000	
          1.77200000	        -17.88966467	        112.34721963	        -12.75269969	         -0.03141592	          0.00000000	         -0.00157802	         -0.00000000	          0.00000000	          0.00000000	          0.00000000	          0.00000000	          0.00000000	          0.00000000	          0.38596350	          0.00000000	          0.00000000	          0.00000000	          0.00000000	
          1.77300000	        -19.93551302	        122.31685756	        -13.94092027	         -0.04742813	          0.00000000	         -0.00299019	         -0.00000000	          0.00000000	          0.00000000	          0.00000000	          0.00000000	          0.00000000	          0.00000000	          0.41627216	          0.00000000	          0.00000000	          0.00000000	          0.00000000	
          1.77400000	        -22.01191875	        132.60595525	        -15.15290455	         -0.06329165	          0.00000000	         -0.00438756	         -0.00000000	          0.00000000	          0.00000000	          0.00000000	          0.00000000	          0.00000000	          0.00000000	          0.44802230	          0.00000000	          0.00000000	          0.00000000	          0.00000000	
          1.77500000	        -24.11500109	        143.20414752	        -16.38655148	         -0.07896001	          0.00000000	         -0.00576601	         -0.00000000	          0.00000000	          0.00000000	          0.00000000	          0.00000000	          0.00000000	          0.00000000	          0.48120918	          0.00000000	          0.00000000	          0.00000000	          0.00000000	
          1.77600000	        -26.24066457	        154.09917089	        -17.63957389	         -0.09438975	          0.00000000	         -0.00712174	         -0.00000000	          0.00000000	          0.00000000	          0.00000000	          0.00000000	          0.00000000	          0.00000000	          0.51581988	          0.00000000	          0.00000000	          0.00000000	          0.00000000	
          1.77700000	        -28.38466325	        165.27682593	        -18.90951530	         -0.10954169	          0.00000000	         -0.00845140	         -0.00000000	          0.00000000	          0.00000000	          0.00000000	          0.00000000	          0.00000000	          0.00000000	          0.55183248	          0.00000000	          0.00000000	          0.00000000	          0.00000000	
          1.77800000	        -30.54266905	        176.72094158	        -20.19376463	         -0.12438100	          0.00000000	         -0.00975206	         -0.00000000	          0.00000000	          0.00000000	          0.00000000	          0.00000000	          0.00000000	          0.00000000	          0.58921585	          0.00000000	          0.00000000	          0.00000000	          0.00000000	
          1.77900000	        -32.71035056	        188.41335868	        -21.48957000	         -0.13887700	          0.00000000	         -0.01102120	         -0.00000000	          0.00000000	          0.00000000	          0.00000000	          0.00000000	          0.00000000	          0.00000000	          0.62792982	          0.00000000	          0.00000000	          0.00000000	          0.00000000	
          1.78000000	        -34.88346587	        200.33394987	        -22.79405152	         -0.15300294	          0.00000000	         -0.01225665	         -0.00000000	          0.00000000	          0.00000000	          0.00000000	          0.00000000	          0.00000000	          0.00000000	          0.66792570	          0.00000000	          0.00000000	          0.00000000	          0.00000000	
          1.78100000	        -37.05796518	        212.46068647	        -24.10421092	         -0.16673572	          0.00000000	         -0.01345657	         -0.00000000	          0.00000000	          0.00000000	          0.00000000	          0.00000000	          0.00000000	          0.00000000	          0.70914674	          0.00000000	          0.00000000	          0.00000000	          0.00000000	
          1.78200000	        -39.23009589	        224.76975967	        -25.41693606	         -0.18005568	          0.00000000	         -0.01461942	         -0.00000000	          0.00000000	          0.00000000	          0.00000000	          0.00000000	          0.00000000	          0.00000000	          0.75152865	          0.00000000	          0.00000000	          0.00000000	          0.00000000	
          1.78300000	        -41.39650011	        237.23575881	        -26.72899887	         -0.19294643	          0.00000000	         -0.01574398	         -0.00000000	          0.00000000	          0.00000000	          0.00000000	          0.00000000	          0.00000000	          0.00000000	          0.79500007	          0.00000000	          0.00000000	          0.00000000	          0.00000000	
          1.78400000	        -43.55429449	        249.83190471	        -28.03704665	         -0.20539456	          0.00000000	         -0.01682929	         -0.00000000	          0.00000000	          0.00000000	          0.00000000	          0.00000000	          0.00000000	          0.00000000	          0.83948303	          0.00000000	          0.00000000	          0.00000000	          0.00000000	
          1.78500000	        -45.70112358	        262.53033196	        -29.33758832	         -0.21738950	          0.00000000	         -0.01787467	         -0.00000000	          0.00000000	          0.00000000	          0.00000000	          0.00000000	          0.00000000	          0.00000000	          0.88489359	          0.00000000	          0.00000000	          0.00000000	          0.00000000	
          1.78600000	        -47.83518132	        275.30240996	        -30.62697836	         -0.22892328	          0.00000000	         -0.01887966	         -0.00000000	          0.00000000	          0.00000000	          0.00000000	          0.00000000	          0.00000000	          0.00000000	          0.93114259	          0.00000000	          0.00000000	          0.00000000	          0.00000000	
          1.78700000	        -49.95519876	        288.11908919	        -31.90140293	         -0.23999034	          0.00000000	         -0.01984407	         -0.00000000	          0.00000000	          0.00000000	          0.00000000	          0.00000000	          0.00000000	          0.00000000	          0.97813642	          0.00000000	          0.00000000	          0.00000000	          0.00000000	
          1.78800000	        -52.06039972	        300.95125581	        -33.15687253	         -0.25058738	          0.00000000	         -0.02076791	         -0.00000000	          0.00000000	          0.00000000	          0.00000000	          0.00000000	          0.00000000	          0.00000000	          1.02577766	          0.00000000	          0.00000000	          0.00000000	          0.00000000	
          1.78900000	        -54.15042891	        313.77007557	        -34.38922538	         -0.26071313	          0.00000000	         -0.02165137	         -0.00000000	          0.00000000	          0.00000000	          0.00000000	          0.00000000	          0.00000000	          0.00000000	          1.07396558	          0.00000000	          0.00000000	          0.00000000	          0.00000000	
          1.79000000	        -56.22525842	        326.54730865	        -35.59414394	         -0.27036823	          0.00000000	         -0.02249485	         -0.00000000	          0.00000000	          0.00000000	          0.00000000	          0.00000000	          0.00000000	          0.00000000	          1.12259625	          0.00000000	          0.00000000	          0.00000000	          0.00000000	
          1.79100000	        -58.28508007	        339.25557943	        -36.76718536	         -0.27955503	          0.00000000	         -0.02329890	         -0.00000000	          0.00000000	          0.00000000	          0.00000000	          0.00000000	          0.00000000	          0.00000000	          1.17156258	          0.00000000	          0.00000000	          0.00000000	          0.00000000	
          1.79200000	        -60.33019027	        351.86859103	        -37.90382471	         -0.28827747	          0.00000000	         -0.02406421	         -0.00000000	          0.00000000	          0.00000000	          0.00000000	          0.00000000	          0.00000000	          0.00000000	          1.22075388	          0.00000000	          0.00000000	          0.00000000	          0.00000000	
          1.79300000	        -62.36087422	        364.36128067	        -38.99950858	         -0.29654090	          0.00000000	         -0.02479161	         -0.00000000	          0.00000000	          0.00000000	          0.00000000	          0.00000000	          0.00000000	          0.00000000	          1.27005533	          0.00000000	          0.00000000	          0.00000000	          0.00000000	
          1.79400000	        -64.37729445	        376.70991887	        -40.04971501	         -0.30435198	          0.00000000	         -0.02548201	         -0.00000000	          0.00000000	          0.00000000	          0.00000000	          0.00000000	          0.00000000	          0.00000000	          1.31934731	          0.00000000	          0.00000000	          0.00000000	          0.00000000	
          1.79500000	        -66.37938802	        388.89216121	        -41.05001541	         -0.31171850	          0.00000000	         -0.02613643	         -0.00000000	          0.00000000	          0.00000000	          0.00000000	          0.00000000	          0.00000000	          0.00000000	          1.36850456	          0.00000000	          0.00000000	          0.00000000	          0.00000000	
          1.79600000	        -68.36677514	        400.88706381	        -41.99613382	         -0.31864930	          0.00000000	         -0.02675597	         -0.00000000	          0.00000000	          0.00000000	          0.00000000	          0.00000000	          0.00000000	          0.00000000	          1.41739557	          0.00000000	          0.00000000	          0.00000000	          0.00000000	
